<svg width="216" height="40" viewBox="0 0 216 40" fill="none" xmlns="http://www.w3.org/2000/svg">
<g clip-path="url(#clip0_34_18)">
<path d="M10.1931 12.735C9.13092 12.781 8.21876 13.0965 7.4092 13.7009C6.444 14.4197 5.86265 15.3968 5.61489 16.5574C5.50392 17.0857 5.53254 17.6482 5.53254 18.1961C5.52742 22.6812 5.52928 27.1667 5.53812 31.6523C5.53812 31.9371 5.4774 32.0571 5.16823 32.0299C4.49824 31.972 3.80174 32.0376 3.16037 31.877C2.04372 31.5979 1.27603 30.8393 0.829372 29.7673C0.495077 28.9696 0.575335 28.1335 0.573939 27.3072C0.56696 22.7271 0.56696 18.1463 0.573939 13.5648C0.573939 12.7803 0.547419 11.9945 0.578824 11.2114C0.64024 9.6635 1.70524 8.2635 3.23085 7.94037C4.05368 7.7666 4.92606 7.79591 5.7768 7.78963C8.14269 7.77241 10.5088 7.77404 12.8752 7.79451C13.5319 7.80149 14.1886 7.91036 14.8433 7.98992C15.0338 8.01296 15.1643 8.09252 15.1615 8.35981C15.1447 10.1416 15.1873 11.9233 15.1461 13.7044C15.0924 16.0535 13.6268 17.9029 11.2923 18.5129C11.0418 18.5785 10.771 18.5666 10.5107 18.6001C10.2504 18.6336 10.1889 18.5115 10.1903 18.2693C10.1994 16.5518 10.1959 14.8343 10.1966 13.1167L10.1931 12.735Z" fill="url(#paint0_linear_34_18)"/>
<path d="M15.149 27.0838C16.2168 27.0677 17.145 26.7614 17.9406 26.1577C19.2666 25.1562 19.8878 23.8009 19.8808 22.1322C19.8654 18.2518 19.8745 14.3715 19.8738 10.4912C19.8738 10.4277 19.8815 10.3648 19.8912 10.2162C20.1006 10.3725 20.2863 10.4912 20.4496 10.6307C21.4227 11.4481 22.2626 12.412 22.939 13.488C23.7241 14.7442 24.3264 16.0807 24.5623 17.549C24.7019 18.4249 24.8254 19.3189 24.8115 20.2011C24.7917 21.6331 24.498 23.0481 23.9461 24.3697C23.4721 25.5316 22.8284 26.6168 22.0359 27.5898C21.1631 28.6426 20.1211 29.5426 18.9526 30.253C17.8046 30.9556 16.5481 31.4631 15.2341 31.7549C14.6924 31.8705 14.1414 31.9382 13.5878 31.9572C12.5849 32.004 11.5792 31.9991 10.5749 32.0312C10.3202 32.0396 10.2483 31.9552 10.2497 31.7046C10.2581 29.7009 10.233 27.6966 10.2644 25.6936C10.2783 24.8275 10.6461 24.0465 11.15 23.3563C11.843 22.4058 12.7552 21.7427 13.9179 21.4643C14.2403 21.3868 14.569 21.3366 14.895 21.2821C15.1302 21.243 15.1476 21.3973 15.1469 21.5752C15.1434 22.5398 15.1469 23.505 15.1469 24.4695L15.149 27.0838Z" fill="url(#paint1_linear_34_18)"/>
<path d="M45.6751 17.4489C44.968 15.9674 43.9242 15.1592 42.4763 15.1592C40.0519 15.1592 38.301 17.4489 38.301 21.9946C38.301 25.8668 39.5805 28.5942 42.0049 28.5942C44.1262 28.5942 45.5404 26.5403 45.6751 22.6007V17.4489ZM40.9274 13.1726C42.813 13.1726 44.4629 13.9134 45.6751 15.2266V11.4554C45.6751 10.3442 45.2037 8.99732 44.5976 8.22287C44.3956 7.95349 44.3282 7.78514 44.3282 7.61678V7.54943C44.3282 7.3474 44.4629 7.24639 44.6649 7.21272L49.0759 6.43827C49.8504 6.30358 50.3555 6.74131 50.3555 7.54943V27.079C50.3555 27.5168 50.4901 27.7525 50.7932 27.7525C51.0289 27.7525 51.1299 27.5841 51.1972 27.4831C51.3993 27.18 51.534 27.079 51.7023 27.079C51.8707 27.079 52.0054 27.2137 52.0054 27.3821V27.7525C52.0054 29.6717 50.9615 30.6145 49.0423 30.6145C46.8199 30.6145 45.8434 29.4024 45.7088 27.0453C44.4966 29.2677 42.5436 30.6145 40.1193 30.6145C36.2133 30.6145 33.4186 27.079 33.4186 22.163C33.4186 16.6408 36.9204 13.1726 40.9274 13.1726ZM57.6022 21.5569C57.6022 23.0721 57.8043 24.419 58.1073 25.4965C63.0907 24.0822 63.1917 18.9978 63.1917 18.3581C63.1917 16.0684 62.0806 14.4858 60.7337 14.4858C58.8481 14.4858 57.6022 17.5163 57.6022 21.5569ZM64.6733 27.0117C65.5151 25.4965 66.7609 25.3618 67.6701 26.2709C68.5792 27.18 68.4109 28.4932 66.7946 29.4024C66.0202 29.8401 64.1345 30.6145 61.6092 30.6145C56.2217 30.6145 52.7198 27.1127 52.7198 21.8936C52.7198 16.5398 56.3564 13.1726 60.9021 13.1726C64.909 13.1726 67.8721 15.7317 67.8721 19.2672C67.8721 23.8129 63.0234 26.5403 58.3767 26.4393C59.1175 28.2575 60.2623 29.2677 61.5418 29.2677C63.3938 29.2677 64.5386 27.2137 64.6733 27.0117ZM69.4923 28.2912L79.1561 14.8225H75.6879C74.1053 14.8225 72.186 15.4623 70.9065 16.4051L70.6035 16.6408C70.4351 16.7755 70.1994 16.8428 70.031 16.8428C69.829 16.8428 69.6943 16.7081 69.728 16.5061L69.9637 14.1828C69.9974 13.7787 70.2667 13.5093 70.7045 13.5093H83.466C84.9476 13.5093 85.3517 14.2838 84.4762 15.4623L74.8124 28.931H78.954C80.5366 28.931 82.4222 28.2912 83.7017 27.3484L84.0048 27.1127C84.1732 26.978 84.4089 26.9107 84.6109 26.9107C84.8129 26.9107 84.9476 27.0453 84.9139 27.2474L84.6782 29.5707C84.6446 29.9748 84.3415 30.2778 83.9038 30.2778H70.4688C69.0209 30.2778 68.6168 29.4697 69.4923 28.2912ZM96.5738 21.5232C93.678 21.5232 90.5466 21.8599 90.5466 25.025C90.5466 27.0453 91.7924 28.5942 93.4423 28.5942C95.2606 28.5942 96.4728 26.7086 96.5738 23.6108V21.5232ZM85.6642 25.3281C85.6642 20.4457 92.0281 20.1763 96.5738 20.21C96.4728 16.2367 95.3616 14.4858 93.8127 14.4858C92.0955 14.4858 90.9843 16.5398 90.5466 17.1122C90.0078 17.853 88.9977 18.3244 87.9875 17.4826C86.9437 16.6071 87.1121 15.2603 88.7283 14.3511C89.5028 13.9134 91.3547 13.1726 93.9474 13.1726C98.6278 13.1726 101.288 15.6306 101.288 20.8834V27.079C101.288 27.5168 101.423 27.7525 101.726 27.7525C101.961 27.7525 102.062 27.5841 102.13 27.4831C102.332 27.18 102.433 27.079 102.601 27.079C102.769 27.079 102.904 27.2137 102.904 27.3821V27.7525C102.904 29.6717 101.894 30.6145 99.941 30.6145C97.988 30.6145 96.9779 29.6717 96.6748 27.8871C95.631 29.6381 93.9474 30.6145 91.6577 30.6145C88.2232 30.6145 85.6642 28.4259 85.6642 25.3281ZM109.747 14.2501V26.0352C109.747 27.1464 110.218 28.4932 110.926 29.4024C111.027 29.5371 111.094 29.7054 111.094 29.8738V29.9411C111.094 30.1431 110.959 30.2778 110.757 30.2778H104.057C103.855 30.2778 103.72 30.1431 103.72 29.9411V29.8738C103.72 29.7054 103.787 29.5371 103.888 29.4024C104.595 28.5269 105.067 27.1464 105.067 26.0352V18.156C105.067 17.0449 104.595 15.698 103.888 14.7888C103.787 14.6542 103.72 14.4858 103.72 14.3174V14.2501C103.72 14.0481 103.855 13.9471 104.057 13.9134L108.468 13.1726C109.242 13.0379 109.747 13.4757 109.747 14.2501ZM103.989 9.50239C103.989 7.65045 105.235 6.4046 107.087 6.4046C108.939 6.4046 110.151 7.65045 110.151 9.50239C110.151 11.3543 108.939 12.6002 107.087 12.6002C105.235 12.6002 103.989 11.3543 103.989 9.50239ZM129.851 18.9978V26.0352C129.851 27.1464 130.322 28.4932 131.029 29.4024C131.13 29.5371 131.198 29.7054 131.198 29.8738V29.9411C131.198 30.1431 131.063 30.2778 130.861 30.2778H124.16C123.958 30.2778 123.823 30.1431 123.823 29.9411V29.8738C123.823 29.7054 123.891 29.5371 123.992 29.4024C124.699 28.5269 125.17 27.1464 125.17 26.0352V19.5366C125.17 17.1122 124.059 15.597 122.072 15.597C119.918 15.597 118.099 17.4152 118.099 20.21V26.0352C118.099 27.1464 118.571 28.4932 119.278 29.4024C119.379 29.5371 119.446 29.7054 119.446 29.8738V29.9411C119.446 30.1431 119.311 30.2778 119.109 30.2778H112.409C112.207 30.2778 112.072 30.1431 112.072 29.9411V29.8738C112.072 29.7054 112.139 29.5371 112.24 29.4024C112.947 28.5269 113.419 27.1464 113.419 26.0352V18.156C113.419 17.0449 112.947 15.698 112.24 14.7888C112.139 14.6542 112.072 14.4858 112.072 14.3174V14.2501C112.072 14.0481 112.207 13.9471 112.409 13.9134L116.82 13.1726C117.594 13.0379 118.099 13.4757 118.099 14.2501V16.1357C119.547 14.2164 121.971 13.1726 124.328 13.1726C127.763 13.1726 129.851 15.4286 129.851 18.9978ZM142.872 21.5232C139.977 21.5232 136.845 21.8599 136.845 25.025C136.845 27.0453 138.091 28.5942 139.741 28.5942C141.559 28.5942 142.771 26.7086 142.872 23.6108V21.5232ZM131.963 25.3281C131.963 20.4457 138.327 20.1763 142.872 20.21C142.771 16.2367 141.66 14.4858 140.111 14.4858C138.394 14.4858 137.283 16.5398 136.845 17.1122C136.306 17.853 135.296 18.3244 134.286 17.4826C133.242 16.6071 133.411 15.2603 135.027 14.3511C135.801 13.9134 137.653 13.1726 140.246 13.1726C144.926 13.1726 147.586 15.6306 147.586 20.8834V27.079C147.586 27.5168 147.721 27.7525 148.024 27.7525C148.26 27.7525 148.361 27.5841 148.428 27.4831C148.63 27.18 148.731 27.079 148.9 27.079C149.068 27.079 149.203 27.2137 149.203 27.3821V27.7525C149.203 29.6717 148.193 30.6145 146.24 30.6145C144.287 30.6145 143.276 29.6717 142.973 27.8871C141.93 29.6381 140.246 30.6145 137.956 30.6145C134.522 30.6145 131.963 28.4259 131.963 25.3281ZM155.911 7.54943V16.1357C157.359 14.2164 159.783 13.1726 162.14 13.1726C165.575 13.1726 167.662 15.4286 167.662 18.9978V26.0352C167.662 27.1464 168.134 28.4932 168.841 29.4024C168.942 29.5371 169.009 29.7054 169.009 29.8738V29.9411C169.009 30.1431 168.875 30.2778 168.673 30.2778H161.972C161.77 30.2778 161.635 30.1431 161.635 29.9411V29.8738C161.635 29.7054 161.703 29.5371 161.804 29.4024C162.511 28.5269 162.982 27.1464 162.982 26.0352V19.5366C162.982 17.1122 161.871 15.597 159.884 15.597C157.729 15.597 155.911 17.4152 155.911 20.21V26.0352C155.911 27.1464 156.382 28.4932 157.089 29.4024C157.19 29.5371 157.258 29.7054 157.258 29.8738V29.9411C157.258 30.1431 157.123 30.2778 156.921 30.2778H150.22C150.018 30.2778 149.884 30.1431 149.884 29.9411V29.8738C149.884 29.7054 149.951 29.5371 150.052 29.4024C150.759 28.5269 151.231 27.1464 151.231 26.0352V11.4554C151.231 10.3442 150.759 8.99732 150.052 8.08818C149.951 7.95349 149.884 7.78514 149.884 7.61678V7.54943C149.884 7.3474 150.018 7.24639 150.22 7.21272L154.631 6.43827C155.406 6.30358 155.911 6.74131 155.911 7.54943ZM170.301 24.722V18.156C170.301 17.0449 169.829 15.698 169.122 14.7888C169.021 14.6542 168.954 14.4858 168.954 14.3174V14.2501C168.954 14.0481 169.089 13.9471 169.291 13.9134L173.702 13.1726C174.476 13.0379 174.981 13.4757 174.981 14.2501V24.2169C174.981 26.6076 176.092 28.1228 178.079 28.1228C180.234 28.1228 182.052 26.3046 182.052 23.5435V18.156C182.052 17.0449 181.581 15.698 180.975 14.9235C180.773 14.6542 180.705 14.4858 180.705 14.3174V14.2501C180.705 14.0481 180.84 13.9471 181.042 13.9134L185.453 13.1726C186.194 13.0379 186.733 13.4757 186.733 14.2501V27.079C186.733 27.5168 186.867 27.7525 187.17 27.7525C187.406 27.7525 187.507 27.5841 187.574 27.4831C187.777 27.18 187.911 27.079 188.08 27.079C188.248 27.079 188.383 27.2137 188.383 27.3821V27.7525C188.383 29.6717 187.339 30.6145 185.419 30.6145C183.332 30.6145 182.355 29.5371 182.12 27.4831C180.672 29.436 178.214 30.5809 175.823 30.5809C172.422 30.5809 170.301 28.2912 170.301 24.722ZM195.206 26.3046C195.913 27.7861 196.957 28.5942 198.404 28.5942C200.829 28.5942 202.613 26.3046 202.613 21.7926C202.613 17.8866 201.3 15.1592 198.876 15.1592C196.754 15.1592 195.34 17.2132 195.206 21.1865V26.3046ZM193.387 30.2778H189.515C189.313 30.2778 189.178 30.1431 189.178 29.9411V29.8738C189.178 29.7054 189.246 29.5371 189.347 29.4024C190.054 28.5269 190.525 27.1464 190.525 26.0352V11.4554C190.525 10.3442 190.054 8.99732 189.347 8.08818C189.246 7.95349 189.178 7.78514 189.178 7.61678V7.54943C189.178 7.3474 189.313 7.24639 189.515 7.21272L193.926 6.43827C194.701 6.30358 195.206 6.74131 195.206 7.54943V16.6745C196.418 14.4521 198.371 13.1726 200.761 13.1726C204.701 13.1726 207.462 16.6745 207.462 21.6242C207.462 27.1127 203.994 30.6145 199.953 30.6145C198.068 30.6145 196.418 29.8401 195.206 28.5269C195.172 29.5707 194.465 30.2778 193.387 30.2778ZM211.094 30.6145C209.512 30.6145 208.468 29.5707 208.468 27.9882C208.468 26.4056 209.512 25.3281 211.094 25.3281C212.677 25.3281 213.754 26.4056 213.754 27.9882C213.754 29.5707 212.677 30.6145 211.094 30.6145ZM211.936 23.2741C211.835 23.6782 211.532 23.9139 211.128 23.9139C210.724 23.9139 210.421 23.6782 210.32 23.2741L209.781 20.7824C209.209 18.0887 208.771 14.4185 208.771 11.6911V9.06466C208.771 7.65045 209.68 6.74131 211.094 6.74131C212.542 6.74131 213.485 7.65045 213.485 9.06466V11.6911C213.485 14.4185 213.047 18.0887 212.475 20.7824L211.936 23.2741Z" fill="white"/>
</g>
<defs>
<linearGradient id="paint0_linear_34_18" x1="13.9039" y1="29.1238" x2="0.161479" y2="5.65893" gradientUnits="userSpaceOnUse">
<stop offset="0.05" stop-color="#1660A3"/>
<stop offset="0.21" stop-color="#1B7EB9"/>
<stop offset="0.42" stop-color="#1F9BCF"/>
<stop offset="0.62" stop-color="#22B0DF"/>
<stop offset="0.81" stop-color="#24BDE9"/>
<stop offset="1" stop-color="#25C1EC"/>
</linearGradient>
<linearGradient id="paint1_linear_34_18" x1="22.1483" y1="32.9141" x2="11.9386" y2="14.0163" gradientUnits="userSpaceOnUse">
<stop offset="0.05" stop-color="#1660A3"/>
<stop offset="0.06" stop-color="#1663A5"/>
<stop offset="0.24" stop-color="#1C85BF"/>
<stop offset="0.42" stop-color="#209FD3"/>
<stop offset="0.6" stop-color="#23B2E1"/>
<stop offset="0.79" stop-color="#24BDE9"/>
<stop offset="1" stop-color="#25C1EC"/>
</linearGradient>
<clipPath id="clip0_34_18">
<rect width="216" height="40" fill="white"/>
</clipPath>
</defs>
</svg>
